<svg width="129" height="43" viewBox="0 0 129 43" fill="none" xmlns="http://www.w3.org/2000/svg">
<path d="M64.7949 26.5282H72.2709V30.2242H60.9309V10.6242H64.7949V26.5282ZM85.9527 28.4882C84.5153 29.9069 82.7607 30.6162 80.6887 30.6162C78.6167 30.6162 76.862 29.9069 75.4247 28.4882C74.006 27.0509 73.2967 25.2962 73.2967 23.2242C73.2967 21.1522 74.006 19.4069 75.4247 17.9882C76.862 16.5509 78.6167 15.8322 80.6887 15.8322C82.7607 15.8322 84.5153 16.5509 85.9527 17.9882C87.39 19.4069 88.1087 21.1522 88.1087 23.2242C88.1087 25.2962 87.39 27.0509 85.9527 28.4882ZM77.9727 25.9962C78.7007 26.7242 79.606 27.0882 80.6887 27.0882C81.7713 27.0882 82.6767 26.7242 83.4047 25.9962C84.1327 25.2682 84.4967 24.3442 84.4967 23.2242C84.4967 22.1042 84.1327 21.1802 83.4047 20.4522C82.6767 19.7242 81.7713 19.3602 80.6887 19.3602C79.606 19.3602 78.7007 19.7242 77.9727 20.4522C77.2633 21.1802 76.9087 22.1042 76.9087 23.2242C76.9087 24.3442 77.2633 25.2682 77.9727 25.9962ZM101.374 16.2242H104.902V29.5522C104.902 31.7176 104.183 33.3696 102.746 34.5082C101.327 35.6469 99.6097 36.2162 97.5937 36.2162C96.0817 36.2162 94.747 35.9269 93.5897 35.3482C92.451 34.7696 91.5737 33.9202 90.9577 32.8002L94.0377 31.0362C94.747 32.3429 95.9697 32.9962 97.7057 32.9962C98.8443 32.9962 99.7403 32.6976 100.394 32.1002C101.047 31.5029 101.374 30.6536 101.374 29.5522V28.0402C100.31 29.4589 98.8163 30.1682 96.8937 30.1682C94.915 30.1682 93.2537 29.4776 91.9097 28.0962C90.5843 26.6962 89.9217 24.9976 89.9217 23.0002C89.9217 21.0216 90.5937 19.3322 91.9377 17.9322C93.2817 16.5322 94.9337 15.8322 96.8937 15.8322C98.8163 15.8322 100.31 16.5416 101.374 17.9602V16.2242ZM94.6257 25.7722C95.3723 26.4816 96.315 26.8362 97.4537 26.8362C98.5923 26.8362 99.5257 26.4816 100.254 25.7722C101 25.0442 101.374 24.1202 101.374 23.0002C101.374 21.8989 101 20.9936 100.254 20.2842C99.5257 19.5562 98.5923 19.1922 97.4537 19.1922C96.315 19.1922 95.3723 19.5562 94.6257 20.2842C93.8977 20.9936 93.5337 21.8989 93.5337 23.0002C93.5337 24.1202 93.8977 25.0442 94.6257 25.7722ZM120.105 28.4882C118.668 29.9069 116.913 30.6162 114.841 30.6162C112.769 30.6162 111.014 29.9069 109.577 28.4882C108.158 27.0509 107.449 25.2962 107.449 23.2242C107.449 21.1522 108.158 19.4069 109.577 17.9882C111.014 16.5509 112.769 15.8322 114.841 15.8322C116.913 15.8322 118.668 16.5509 120.105 17.9882C121.542 19.4069 122.261 21.1522 122.261 23.2242C122.261 25.2962 121.542 27.0509 120.105 28.4882ZM112.125 25.9962C112.853 26.7242 113.758 27.0882 114.841 27.0882C115.924 27.0882 116.829 26.7242 117.557 25.9962C118.285 25.2682 118.649 24.3442 118.649 23.2242C118.649 22.1042 118.285 21.1802 117.557 20.4522C116.829 19.7242 115.924 19.3602 114.841 19.3602C113.758 19.3602 112.853 19.7242 112.125 20.4522C111.416 21.1802 111.061 22.1042 111.061 23.2242C111.061 24.3442 111.416 25.2682 112.125 25.9962Z" fill="#555758"/>
<circle cx="21.4949" cy="21.4949" r="21.4949" fill="url(#paint0_linear_212_57)"/>
<g filter="url(#filter0_i_212_57)">
<mask id="mask0_212_57" style="mask-type:alpha" maskUnits="userSpaceOnUse" x="0" y="0" width="43" height="43">
<circle cx="21.4949" cy="21.4949" r="21.4949" fill="url(#paint1_linear_212_57)"/>
</mask>
<g mask="url(#mask0_212_57)">
<path d="M8.66923 30.0661H21.4852V36.4021H2.04523V2.80205H8.66923V30.0661ZM44.9396 33.4261C42.4756 35.8581 39.4676 37.0741 35.9156 37.0741C32.3636 37.0741 29.3556 35.8581 26.8916 33.4261C24.4596 30.9621 23.2436 27.9541 23.2436 24.4021C23.2436 20.8501 24.4596 17.8581 26.8916 15.4261C29.3556 12.9621 32.3636 11.7301 35.9156 11.7301C39.4676 11.7301 42.4756 12.9621 44.9396 15.4261C47.4036 17.8581 48.6356 20.8501 48.6356 24.4021C48.6356 27.9541 47.4036 30.9621 44.9396 33.4261ZM31.2596 29.1541C32.5076 30.4021 34.0596 31.0261 35.9156 31.0261C37.7716 31.0261 39.3236 30.4021 40.5716 29.1541C41.8196 27.9061 42.4436 26.3221 42.4436 24.4021C42.4436 22.4821 41.8196 20.8981 40.5716 19.6501C39.3236 18.4021 37.7716 17.7781 35.9156 17.7781C34.0596 17.7781 32.5076 18.4021 31.2596 19.6501C30.0436 20.8981 29.4356 22.4821 29.4356 24.4021C29.4356 26.3221 30.0436 27.9061 31.2596 29.1541Z" fill="white"/>
</g>
</g>
<defs>
<filter id="filter0_i_212_57" x="2.04523" y="2.80205" width="40.9445" height="35.272" filterUnits="userSpaceOnUse" color-interpolation-filters="sRGB">
<feFlood flood-opacity="0" result="BackgroundImageFix"/>
<feBlend mode="normal" in="SourceGraphic" in2="BackgroundImageFix" result="shape"/>
<feColorMatrix in="SourceAlpha" type="matrix" values="0 0 0 0 0 0 0 0 0 0 0 0 0 0 0 0 0 0 127 0" result="hardAlpha"/>
<feOffset dy="2"/>
<feGaussianBlur stdDeviation="0.5"/>
<feComposite in2="hardAlpha" operator="arithmetic" k2="-1" k3="1"/>
<feColorMatrix type="matrix" values="0 0 0 0 0 0 0 0 0 0 0 0 0 0 0 0 0 0 0.14 0"/>
<feBlend mode="normal" in2="shape" result="effect1_innerShadow_212_57"/>
</filter>
<linearGradient id="paint0_linear_212_57" x1="0" y1="21.4949" x2="42.9898" y2="21.4949" gradientUnits="userSpaceOnUse">
<stop stop-color="#1D75DD"/>
<stop offset="1" stop-color="#085EC4"/>
</linearGradient>
<linearGradient id="paint1_linear_212_57" x1="0" y1="21.4949" x2="42.9898" y2="21.4949" gradientUnits="userSpaceOnUse">
<stop stop-color="#49ACAA"/>
<stop offset="1" stop-color="#3FC1C0"/>
</linearGradient>
</defs>
</svg>
