<svg width="9" height="9" viewBox="0 0 9 9" fill="none" xmlns="http://www.w3.org/2000/svg">
<path d="M6.97124 6.3268C6.03783 6.33995 5.13707 5.97184 4.46456 5.3024C3.79206 4.63295 3.4021 3.71623 3.37937 2.75127C3.37954 2.27779 3.47246 1.80926 3.65251 1.37392C3.83256 0.938583 4.09602 0.545461 4.427 0.218262C3.44581 0.318434 2.53482 0.78929 1.86844 1.54068C1.20207 2.29208 0.82714 3.27121 0.81543 4.29062C0.839211 5.39273 1.28448 6.44016 2.0537 7.20347C2.82291 7.96678 3.85336 8.38373 4.91931 8.36298C5.7131 8.37015 6.4919 8.13934 7.1615 7.69848C7.83111 7.25762 8.36283 6.62559 8.69235 5.87884C8.16284 6.17179 7.57179 6.32563 6.97124 6.3268Z" fill="#282A2E"/>
</svg>
