<svg width="13" height="13" viewBox="0 0 13 13" fill="none" xmlns="http://www.w3.org/2000/svg">
<path d="M2.6185 6.70919C2.6185 6.54717 2.55626 6.39178 2.44547 6.27721C2.33468 6.16264 2.18441 6.09828 2.02773 6.09828H1.43696C1.28028 6.09828 1.13001 6.16264 1.01922 6.27721C0.908433 6.39178 0.846191 6.54717 0.846191 6.70919C0.846191 6.87121 0.908433 7.0266 1.01922 7.14117C1.13001 7.25573 1.28028 7.3201 1.43696 7.3201H2.02773C2.18441 7.3201 2.33468 7.25573 2.44547 7.14117C2.55626 7.0266 2.6185 6.87121 2.6185 6.70919ZM2.99659 9.76373L2.57715 10.1975C2.46711 10.3119 2.40535 10.4668 2.40535 10.6282C2.40535 10.7896 2.46711 10.9444 2.57715 11.0589C2.68783 11.1726 2.83757 11.2365 2.99364 11.2365C3.14971 11.2365 3.29944 11.1726 3.41013 11.0589L3.82958 10.6251C3.92636 10.5082 3.97693 10.3579 3.97119 10.2042C3.96545 10.0504 3.90381 9.90457 3.7986 9.79577C3.69339 9.68697 3.55235 9.62323 3.40366 9.61729C3.25498 9.61135 3.10961 9.66365 2.99659 9.76373ZM6.75388 2.43282C6.91057 2.43282 7.06083 2.36846 7.17162 2.25389C7.28241 2.13933 7.34465 1.98394 7.34465 1.82192V1.21101C7.34465 1.04898 7.28241 0.893596 7.17162 0.779029C7.06083 0.664461 6.91057 0.600098 6.75388 0.600098C6.5972 0.600098 6.44694 0.664461 6.33615 0.779029C6.22536 0.893596 6.16312 1.04898 6.16312 1.21101V1.82192C6.16312 1.98394 6.22536 2.13933 6.33615 2.25389C6.44694 2.36846 6.5972 2.43282 6.75388 2.43282ZM10.0976 3.86235C10.2526 3.86168 10.4011 3.79805 10.5112 3.68519L10.9306 3.25144C10.9925 3.19668 11.0427 3.12928 11.0782 3.05349C11.1136 2.9777 11.1335 2.89514 11.1367 2.81101C11.1398 2.72688 11.1261 2.64298 11.0964 2.56458C11.0667 2.48619 11.0217 2.41499 10.9641 2.35545C10.9065 2.29592 10.8377 2.24933 10.7619 2.21862C10.686 2.1879 10.6049 2.17373 10.5236 2.17698C10.4422 2.18023 10.3624 2.20083 10.2891 2.2375C10.2158 2.27417 10.1506 2.32611 10.0976 2.39006L9.70773 2.82381C9.5977 2.93827 9.53594 3.0931 9.53594 3.2545C9.53594 3.41589 9.5977 3.57073 9.70773 3.68519C9.81188 3.79232 9.95089 3.85548 10.0976 3.86235ZM3.00841 3.68519C3.11844 3.79805 3.26696 3.86168 3.42195 3.86235C3.49969 3.86282 3.57677 3.84741 3.64875 3.81701C3.72072 3.7866 3.78619 3.74181 3.84139 3.68519C3.95142 3.57073 4.01318 3.41589 4.01318 3.2545C4.01318 3.0931 3.95142 2.93827 3.84139 2.82381L3.42195 2.39006C3.36725 2.3327 3.30217 2.28704 3.23041 2.25569C3.15865 2.22434 3.08162 2.20791 3.00372 2.20734C2.92582 2.20678 2.84858 2.22208 2.7764 2.25238C2.70422 2.28269 2.63852 2.32739 2.58305 2.38395C2.52758 2.44051 2.48343 2.50781 2.45311 2.58202C2.42279 2.65622 2.40691 2.73588 2.40636 2.81643C2.40525 2.97912 2.46668 3.1356 2.57715 3.25144L3.00841 3.68519ZM12.0708 6.09828H11.48C11.3234 6.09828 11.1731 6.16264 11.0623 6.27721C10.9515 6.39178 10.8893 6.54717 10.8893 6.70919C10.8893 6.87121 10.9515 7.0266 11.0623 7.14117C11.1731 7.25573 11.3234 7.3201 11.48 7.3201H12.0708C12.2275 7.3201 12.3778 7.25573 12.4885 7.14117C12.5993 7.0266 12.6616 6.87121 12.6616 6.70919C12.6616 6.54717 12.5993 6.39178 12.4885 6.27721C12.3778 6.16264 12.2275 6.09828 12.0708 6.09828ZM10.5112 9.76373C10.3989 9.69918 10.2694 9.6742 10.1422 9.69259C10.015 9.71097 9.89708 9.77172 9.80627 9.86563C9.71545 9.95954 9.65671 10.0815 9.63893 10.213C9.62115 10.3446 9.6453 10.4785 9.70773 10.5946L10.1272 11.0283C10.2379 11.1421 10.3876 11.206 10.5437 11.206C10.6997 11.206 10.8495 11.1421 10.9602 11.0283C11.0702 10.9139 11.132 10.759 11.132 10.5976C11.132 10.4362 11.0702 10.2814 10.9602 10.1669L10.5112 9.76373ZM6.75388 3.34919C6.11125 3.34919 5.48304 3.54625 4.94871 3.91545C4.41437 4.28465 3.99791 4.80941 3.75199 5.42337C3.50606 6.03733 3.44171 6.71292 3.56709 7.36469C3.69246 8.01647 4.00192 8.61516 4.45633 9.08507C4.91074 9.55497 5.4897 9.87498 6.11999 10.0046C6.75028 10.1343 7.40359 10.0677 7.99731 9.81342C8.59103 9.55911 9.09849 9.12845 9.45552 8.5759C9.81255 8.02336 10.0031 7.37373 10.0031 6.70919C10.0016 5.81856 9.65872 4.96487 9.04971 4.33509C8.4407 3.70532 7.61515 3.3508 6.75388 3.34919ZM6.75388 8.84737C6.34493 8.84737 5.94517 8.72197 5.60514 8.48702C5.26511 8.25208 5.00008 7.91814 4.84359 7.52744C4.68709 7.13673 4.64614 6.70682 4.72592 6.29205C4.8057 5.87728 5.00263 5.4963 5.2918 5.19727C5.58098 4.89824 5.9494 4.69459 6.3505 4.61209C6.75159 4.52959 7.16733 4.57193 7.54516 4.73377C7.92298 4.8956 8.24591 5.16966 8.47311 5.52128C8.70031 5.8729 8.82158 6.2863 8.82158 6.70919C8.82158 7.27627 8.60373 7.82012 8.21596 8.22111C7.8282 8.6221 7.30227 8.84737 6.75388 8.84737ZM6.75388 10.9856C6.5972 10.9856 6.44694 11.0499 6.33615 11.1645C6.22536 11.2791 6.16312 11.4344 6.16312 11.5965V12.2074C6.16312 12.3694 6.22536 12.5248 6.33615 12.6393C6.44694 12.7539 6.5972 12.8183 6.75388 12.8183C6.91057 12.8183 7.06083 12.7539 7.17162 12.6393C7.28241 12.5248 7.34465 12.3694 7.34465 12.2074V11.5965C7.34465 11.4344 7.28241 11.2791 7.17162 11.1645C7.06083 11.0499 6.91057 10.9856 6.75388 10.9856Z" fill="#282A2E"/>
</svg>
